<?xml version="1.0" encoding="UTF-8"?>
<svg id="Logo_Claim" data-name="Logo Claim" xmlns="http://www.w3.org/2000/svg" viewBox="0 0 573.46 576.12">
  <defs>
    <style>
      .cls-1 {
        fill: #fff;
        stroke-width: 0px;
      }
    </style>
  </defs>
  <path class="cls-1" d="m341.17,0l-120.52,227.91c-16.72,38.98-22.71,63.4-13.22,79.12,9.5,15.73,21.44,23.59,47.42,23.59,6.88,0,40.55-.6,57.25.11h.9v-84.88h111.47v84.88h29.33v99.75h-29.33v48.66h-111.47v-48.45c-21.95,0-42.82-.2-64.9-.2-33.47,0-61.34-4.6-83.58-13.76-22.23-9.18-39.84-22.15-52.85-38.92-12.99-16.78-22.07-26.62-27.74-59.76-3.79-28.98,8.28-56.51,21.75-88.67L224.82,1.57C96.24,30.28,0,146.42,0,285.41c0,160.56,128.37,290.71,286.73,290.71s286.73-130.16,286.73-290.71c0-141.68-99.98-259.62-232.29-285.41Z"/>
</svg>